#N canvas 583 108 253 198 10;
#X obj 40 108 dac~ 3;
#X obj 40 32 adc~ 4;
#X obj 40 53 *~ 2;
#X obj 40 76 phasor~ 0.5;
#X obj 118 111 dac~ 27;
#X connect 1 0 2 0;
#X connect 2 0 3 0;
#X connect 3 0 0 0;
#X connect 3 0 4 0;
