#N canvas 26 22 717 587 10;
#X obj 71 297 vline~;
#X obj 249 58 loadbang;
#X obj 264 301 vline~;
#X obj 491 287 vline~;
#X text 298 168 blue;
#X text 503 219 red;
#X text 76 169 green;
#X obj 240 97 metro 6000;
#X msg 72 267 1 2000 \, 0 2000 2000;
#X msg 233 267 1 2000 1000 \, 0 2000 4000;
#X msg 514 256 1 2000 3000 \, 0 2000 5000;
#X obj 350 476 dac~ 1 2;
#X obj 30 342 osc~ 330;
#X obj 40 373 +~;
#X obj 90 342 osc~ 331.5;
#X obj 40 394 *~;
#X obj 250 373 +~;
#X obj 250 424 *~;
#X obj 420 373 +~;
#X obj 420 424 *~;
#X obj 116 507 dac~ 3;
#X obj 186 507 dac~ 4;
#X obj 246 507 dac~ 5;
#X obj 240 342 osc~ 440;
#X obj 300 342 osc~ 441.5;
#X obj 410 342 osc~ 550;
#X obj 470 342 osc~ 551.5;
#X connect 0 0 15 1;
#X connect 0 0 20 0;
#X connect 1 0 7 0;
#X connect 2 0 17 1;
#X connect 2 0 21 0;
#X connect 3 0 19 1;
#X connect 3 0 22 0;
#X connect 7 0 10 0;
#X connect 7 0 8 0;
#X connect 7 0 9 0;
#X connect 8 0 0 0;
#X connect 9 0 2 0;
#X connect 10 0 3 0;
#X connect 12 0 13 0;
#X connect 13 0 15 0;
#X connect 14 0 13 1;
#X connect 15 0 11 0;
#X connect 15 0 11 1;
#X connect 16 0 17 0;
#X connect 17 0 11 0;
#X connect 17 0 11 1;
#X connect 18 0 19 0;
#X connect 19 0 11 0;
#X connect 19 0 11 1;
#X connect 23 0 16 0;
#X connect 24 0 16 1;
#X connect 25 0 18 0;
#X connect 26 0 18 1;
