#N canvas 1496 22 1704 1036 10;
#X text 58 199 Digital out \, message rate;
#X obj 60 277 tgl 15 0 empty empty empty 17 7 0 10 -262144 -1 -1 1
1;
#X obj 60 227 loadbang;
#X text 88 276 Blink that LED!;
#X obj 64 149 s bela_setDigital;
#X obj 64 102 loadbang;
#X text 134 122 initialise the pin to output;
#X text 463 11 ............................;
#X text 463 21 . ____ ._____ _ .......___ .;
#X text 463 31 .| __ )| ____| |....../ _ |.;
#X text 463 51 .| |_) | |___| |___ / ___ |.;
#X text 463 61 .|____/|_____|_____/_/..._|.io;
#X text 463 71 ............................;
#X text 463 41 .| __ || __|.| |...../ _| |.;
#X text 64 30 Digital Output;
#X text 64 40 ===============;
#X msg 64 124 out 17;
#X obj 68 456 s bela_digitalOut17;
#X text 200 29 to access the Bela IDE.;
#X obj 60 252 metro 1000;
#X text 400 164 Hardware: connect an LED to P9_12 (Pd: digital 17)
;
#X text 400 177 see attached diagram and Bela pin diagram.;
#X text 200 17 Go to webpage http://bela.local/;
#X text 400 215 Task 1: change the rate of flashing;
#X text 400 235 Task 2: play a tone when LED flashes;
#X text 400 255 Task 3: create a two tone siren in time with the LED
;
#X obj 154 347 osc~ 220;
#X obj 228 455 dac~ 1 2;
#X obj 126 304 select 0 1;
#X msg 121 326 220;
#X msg 163 326 330;
#X obj 161 397 *~ 0.1;
#X connect 1 0 17 0;
#X connect 1 0 28 0;
#X connect 2 0 19 0;
#X connect 5 0 16 0;
#X connect 16 0 4 0;
#X connect 19 0 1 0;
#X connect 26 0 31 0;
#X connect 28 0 29 0;
#X connect 28 1 30 0;
#X connect 29 0 26 0;
#X connect 30 0 26 0;
#X connect 31 0 27 0;
#X connect 31 0 27 1;
