#N canvas 0 22 1280 756 10;
#X obj 215 188 pack 0 0 0;
#N canvas 0 246 1440 590 stringvoice 0;
#X obj 1196 132 noise~;
#X obj 1239 250 *~;
#X obj 825 175 *~;
#X obj 855 270 +~;
#X obj 528 23 unpack;
#X obj 1158 40 sel 0;
#X obj 1317 231 line~;
#X obj 438 7 inlet;
#X obj 844 96 r feedbackamt;
#X obj 1456 176 r dc;
#X obj 1495 181 r su;
#X obj 825 213 lop~, f 7;
#X msg 1344 88 1 0 \, 0 20;
#X obj 394 417 bp~, f 6;
#X obj 312 418 bp~, f 6;
#X obj 225 418 bp~, f 6;
#X obj 226 467 *~;
#X obj 404 467 *~;
#X obj 315 463 *~;
#X obj 490 415 bp~, f 6;
#X obj 490 467 *~;
#X obj 248 440 r f1;
#X obj 428 440 r f3;
#X obj 515 442 r f4;
#X obj 333 441 r f2;
#X obj 237 360 r res;
#X obj 90 317 r h1;
#X obj 73 364 *;
#X obj 141 361 *;
#X obj 147 318 r h2;
#X obj 200 360 *;
#X obj 209 319 r h3;
#X obj 393 261 t b f;
#X obj 406 311 /;
#X msg 394 287 1;
#X obj 405 333 * 1000;
#X obj 62 70 mtof;
#X floatatom 528 48 5 0 0 0 - - -;
#X obj 1271 399 block~ 1;
#X obj 328 527 *~;
#X obj 329 553 outlet~;
#X floatatom 805 115 5 0 0 0 - - -;
#X obj 771 49 t b f;
#X obj 804 92 *;
#X obj 803 70 / 1300;
#X obj 805 132 +;
#X floatatom 806 152 5 0 0 0 - - -;
#X obj 1010 241 -;
#X obj 1075 226 r damper;
#X obj 1041 176 log;
#X obj 1010 195 *;
#X obj 991 175 t b f;
#X obj 822 498 delwrite~ emily1_2 500;
#X obj 629 189 delread~ emily1_2 500;
#X obj 790 213 *~;
#X obj 754 235 lop~, f 7;
#X obj 647 262 +~;
#X obj 647 282 *~ -1;
#X obj 1032 498 delwrite~ emily1_1 500;
#X obj 636 153 delread~ emily1_1 500;
#X obj 644 322 *~;
#X obj 767 325 *~;
#X obj 993 408 swap 1;
#X obj 996 429 -;
#X obj 1149 204 float;
#X obj 1194 205 + 1;
#X obj 1142 180 bng 15 250 50 0 empty empty empty 17 7 0 10 -262144
-1 -1;
#X floatatom 993 389 5 0 0 0 - - -;
#X msg 1000 345 0.5;
#X obj 1149 227 % 6;
#X obj 969 283 sel 0 1 2 3 4 5;
#X obj 1079 160 loadbang;
#X msg 959 345 0.4;
#X obj 272 204 line;
#X obj 281 263 +;
#X obj 284 231 t b f;
#X floatatom 274 149 5 0 0 0 - - -;
#X obj 345 110 t b;
#X obj 211 91 r detune;
#X obj 9 67 sel 0;
#X msg 1037 345 0.6;
#X obj 211 122 *;
#X obj 278 91 / 130;
#X obj 1009 220 * 15;
#X msg 273 173 \$1 10;
#X msg 341 173 0 10;
#X obj 344 150 delay 15;
#X obj 38 511 / 127;
#X obj 896 225 clip 800 5200;
#X connect 0 0 1 0;
#X connect 1 0 3 1;
#X connect 1 0 56 1;
#X connect 2 0 11 0;
#X connect 3 0 58 0;
#X connect 3 0 61 0;
#X connect 4 0 37 0;
#X connect 4 0 77 0;
#X connect 4 0 86 0;
#X connect 4 1 5 0;
#X connect 4 1 79 0;
#X connect 5 1 66 0;
#X connect 5 1 12 0;
#X connect 6 0 1 1;
#X connect 7 0 4 0;
#X connect 8 0 45 1;
#X connect 11 0 3 0;
#X connect 12 0 6 0;
#X connect 13 0 17 0;
#X connect 14 0 18 0;
#X connect 15 0 16 0;
#X connect 16 0 39 0;
#X connect 17 0 39 0;
#X connect 18 0 39 0;
#X connect 19 0 20 0;
#X connect 20 0 39 0;
#X connect 21 0 16 1;
#X connect 22 0 17 1;
#X connect 23 0 20 1;
#X connect 24 0 18 1;
#X connect 25 0 19 2;
#X connect 25 0 13 2;
#X connect 25 0 14 2;
#X connect 25 0 15 2;
#X connect 26 0 27 1;
#X connect 27 0 14 1;
#X connect 28 0 13 1;
#X connect 29 0 28 1;
#X connect 30 0 19 1;
#X connect 31 0 30 1;
#X connect 32 0 34 0;
#X connect 32 1 33 1;
#X connect 33 0 35 0;
#X connect 34 0 33 0;
#X connect 35 0 59 0;
#X connect 35 0 53 0;
#X connect 36 0 15 1;
#X connect 36 0 27 0;
#X connect 36 0 28 0;
#X connect 36 0 30 0;
#X connect 36 0 74 0;
#X connect 37 0 36 0;
#X connect 37 0 42 0;
#X connect 37 0 51 0;
#X connect 37 0 82 0;
#X connect 39 0 40 0;
#X connect 41 0 45 0;
#X connect 42 0 43 0;
#X connect 42 1 44 0;
#X connect 43 0 41 0;
#X connect 44 0 43 0;
#X connect 44 0 43 1;
#X connect 45 0 46 0;
#X connect 46 0 2 1;
#X connect 46 0 54 1;
#X connect 47 0 88 0;
#X connect 48 0 47 1;
#X connect 49 0 50 1;
#X connect 50 0 83 0;
#X connect 51 0 50 0;
#X connect 51 1 49 0;
#X connect 51 1 50 0;
#X connect 53 0 54 0;
#X connect 54 0 55 0;
#X connect 55 0 56 0;
#X connect 56 0 57 0;
#X connect 57 0 52 0;
#X connect 57 0 60 0;
#X connect 59 0 2 0;
#X connect 60 0 15 0;
#X connect 60 0 14 0;
#X connect 60 0 13 0;
#X connect 60 0 19 0;
#X connect 61 0 19 0;
#X connect 61 0 13 0;
#X connect 61 0 14 0;
#X connect 61 0 15 0;
#X connect 62 0 63 0;
#X connect 62 1 63 1;
#X connect 63 0 61 1;
#X connect 64 0 65 0;
#X connect 64 0 69 0;
#X connect 65 0 64 1;
#X connect 66 0 64 0;
#X connect 67 0 62 0;
#X connect 67 0 60 1;
#X connect 68 0 67 0;
#X connect 69 0 70 0;
#X connect 70 0 72 0;
#X connect 70 1 80 0;
#X connect 70 2 68 0;
#X connect 70 3 72 0;
#X connect 70 4 80 0;
#X connect 70 5 68 0;
#X connect 71 0 64 0;
#X connect 72 0 67 0;
#X connect 73 0 75 0;
#X connect 74 0 32 0;
#X connect 75 0 74 0;
#X connect 75 1 74 1;
#X connect 76 0 84 0;
#X connect 77 0 76 0;
#X connect 77 0 86 0;
#X connect 78 0 81 0;
#X connect 79 1 87 0;
#X connect 80 0 67 0;
#X connect 81 0 76 0;
#X connect 82 0 81 1;
#X connect 83 0 47 0;
#X connect 84 0 73 0;
#X connect 85 0 73 0;
#X connect 86 0 85 0;
#X connect 87 0 39 1;
#X connect 88 0 11 1;
#X connect 88 0 55 1;
#X restore 84 271 pd stringvoice;
#N canvas 0 246 1440 590 stringvoice 0;
#X obj 1196 132 noise~;
#X obj 1239 250 *~;
#X obj 825 175 *~;
#X obj 855 270 +~;
#X obj 528 18 unpack;
#X obj 1158 40 sel 0;
#X obj 1317 231 line~;
#X obj 438 7 inlet;
#X obj 844 96 r feedbackamt;
#X obj 1456 176 r dc;
#X obj 1495 181 r su;
#X obj 825 213 lop~, f 7;
#X msg 1344 88 1 0 \, 0 20;
#X obj 394 417 bp~, f 6;
#X obj 312 418 bp~, f 6;
#X obj 225 418 bp~, f 6;
#X obj 226 467 *~;
#X obj 404 467 *~;
#X obj 315 463 *~;
#X obj 490 415 bp~, f 6;
#X obj 490 467 *~;
#X obj 248 440 r f1;
#X obj 428 440 r f3;
#X obj 515 442 r f4;
#X obj 333 441 r f2;
#X obj 237 360 r res;
#X obj 90 317 r h1;
#X obj 73 364 *;
#X obj 141 361 *;
#X obj 147 318 r h2;
#X obj 200 360 *;
#X obj 209 319 r h3;
#X obj 414 213 t b f;
#X obj 427 263 /;
#X msg 415 239 1;
#X obj 426 285 * 1000;
#X obj 62 70 mtof;
#X floatatom 528 48 5 0 0 0 - - -;
#X obj 1271 399 block~ 1;
#X obj 331 506 *~;
#X obj 329 553 outlet~;
#X floatatom 805 115 5 0 0 0 - - -;
#X obj 771 49 t b f;
#X obj 804 92 *;
#X obj 803 70 / 1300;
#X obj 805 132 +;
#X floatatom 806 152 5 0 0 0 - - -;
#X obj 1010 241 -;
#X obj 1075 226 r damper;
#X obj 1041 176 log;
#X obj 1010 195 *;
#X obj 991 175 t b f;
#X obj 790 213 *~;
#X obj 754 235 lop~, f 7;
#X obj 647 262 +~;
#X obj 647 282 *~ -1;
#X obj 644 322 *~;
#X obj 767 325 *~;
#X obj 994 410 swap 1;
#X obj 996 432 -;
#X obj 1149 204 float;
#X obj 1194 205 + 1;
#X obj 1142 180 bng 15 250 50 0 empty empty empty 17 7 0 10 -262144
-1 -1;
#X floatatom 1010 392 5 0 0 0 - - -;
#X msg 1000 345 0.5;
#X obj 1149 227 % 6;
#X obj 969 283 sel 0 1 2 3 4 5;
#X obj 1079 160 loadbang;
#X msg 959 345 0.4;
#X obj 284 215 line;
#X obj 293 274 +;
#X obj 296 242 t b f;
#X floatatom 274 149 5 0 0 0 - - -;
#X obj 345 110 t b;
#X obj 11 64 sel 0;
#X msg 1037 345 0.6;
#X obj 636 153 delread~ emily2_1 500;
#X obj 629 189 delread~ emily2_2 500;
#X obj 822 498 delwrite~ emily2_2 500;
#X obj 1032 498 delwrite~ emily2_1 500;
#X obj 211 91 r detune;
#X obj 211 122 *;
#X obj 278 91 / 130;
#X obj 1009 220 * 15;
#X msg 273 173 \$1 10;
#X msg 341 173 0 10;
#X obj 344 150 delay 15;
#X obj 38 511 / 127;
#X obj 896 225 clip 800 5200;
#X connect 0 0 1 0;
#X connect 1 0 3 1;
#X connect 1 0 54 1;
#X connect 2 0 11 0;
#X connect 3 0 57 0;
#X connect 3 0 79 0;
#X connect 4 0 37 0;
#X connect 4 0 73 0;
#X connect 4 0 86 0;
#X connect 4 1 5 0;
#X connect 4 1 74 0;
#X connect 5 1 62 0;
#X connect 5 1 12 0;
#X connect 6 0 1 1;
#X connect 7 0 4 0;
#X connect 8 0 45 1;
#X connect 11 0 3 0;
#X connect 12 0 6 0;
#X connect 13 0 17 0;
#X connect 14 0 18 0;
#X connect 15 0 16 0;
#X connect 16 0 39 0;
#X connect 17 0 39 0;
#X connect 18 0 39 0;
#X connect 19 0 20 0;
#X connect 20 0 39 0;
#X connect 21 0 16 1;
#X connect 22 0 17 1;
#X connect 23 0 20 1;
#X connect 24 0 18 1;
#X connect 25 0 19 2;
#X connect 25 0 13 2;
#X connect 25 0 14 2;
#X connect 25 0 15 2;
#X connect 26 0 27 1;
#X connect 27 0 14 1;
#X connect 28 0 13 1;
#X connect 29 0 28 1;
#X connect 30 0 19 1;
#X connect 31 0 30 1;
#X connect 32 0 34 0;
#X connect 32 1 33 1;
#X connect 33 0 35 0;
#X connect 34 0 33 0;
#X connect 35 0 76 0;
#X connect 35 0 77 0;
#X connect 36 0 15 1;
#X connect 36 0 27 0;
#X connect 36 0 28 0;
#X connect 36 0 30 0;
#X connect 36 0 70 0;
#X connect 37 0 36 0;
#X connect 37 0 42 0;
#X connect 37 0 51 0;
#X connect 37 0 82 0;
#X connect 39 0 40 0;
#X connect 41 0 45 0;
#X connect 42 0 43 0;
#X connect 42 1 44 0;
#X connect 43 0 41 0;
#X connect 44 0 43 0;
#X connect 44 0 43 1;
#X connect 45 0 46 0;
#X connect 46 0 2 1;
#X connect 46 0 52 1;
#X connect 47 0 88 0;
#X connect 48 0 47 1;
#X connect 49 0 50 1;
#X connect 50 0 83 0;
#X connect 51 0 50 0;
#X connect 51 1 49 0;
#X connect 51 1 50 0;
#X connect 52 0 53 0;
#X connect 53 0 54 0;
#X connect 54 0 55 0;
#X connect 55 0 56 0;
#X connect 55 0 78 0;
#X connect 56 0 15 0;
#X connect 56 0 14 0;
#X connect 56 0 13 0;
#X connect 56 0 19 0;
#X connect 57 0 19 0;
#X connect 57 0 13 0;
#X connect 57 0 14 0;
#X connect 57 0 15 0;
#X connect 58 0 59 0;
#X connect 58 1 59 1;
#X connect 59 0 57 1;
#X connect 60 0 61 0;
#X connect 60 0 65 0;
#X connect 61 0 60 1;
#X connect 62 0 60 0;
#X connect 63 0 58 0;
#X connect 63 0 56 1;
#X connect 64 0 63 0;
#X connect 65 0 66 0;
#X connect 66 0 75 0;
#X connect 66 1 68 0;
#X connect 66 2 64 0;
#X connect 66 3 68 0;
#X connect 66 4 75 0;
#X connect 66 5 64 0;
#X connect 67 0 60 0;
#X connect 68 0 63 0;
#X connect 69 0 71 0;
#X connect 70 0 32 0;
#X connect 71 0 70 0;
#X connect 71 1 70 1;
#X connect 72 0 84 0;
#X connect 73 0 72 0;
#X connect 73 0 86 0;
#X connect 74 1 87 0;
#X connect 75 0 63 0;
#X connect 76 0 2 0;
#X connect 77 0 52 0;
#X connect 80 0 81 0;
#X connect 81 0 72 0;
#X connect 82 0 81 1;
#X connect 83 0 47 0;
#X connect 84 0 69 0;
#X connect 85 0 69 0;
#X connect 86 0 85 0;
#X connect 87 0 39 1;
#X connect 88 0 11 1;
#X connect 88 0 53 1;
#X restore 190 271 pd stringvoice;
#N canvas 0 246 1440 590 stringvoice 0;
#X obj 1196 132 noise~;
#X obj 1239 250 *~;
#X obj 825 175 *~;
#X obj 855 270 +~;
#X obj 528 23 unpack;
#X obj 1158 40 sel 0;
#X obj 1317 231 line~;
#X obj 438 7 inlet;
#X obj 844 96 r feedbackamt;
#X obj 1456 176 r dc;
#X obj 1495 181 r su;
#X obj 825 213 lop~, f 7;
#X msg 1344 88 1 0 \, 0 20;
#X obj 394 417 bp~, f 6;
#X obj 312 418 bp~, f 6;
#X obj 225 418 bp~, f 6;
#X obj 226 467 *~;
#X obj 404 467 *~;
#X obj 315 463 *~;
#X obj 490 415 bp~, f 6;
#X obj 490 467 *~;
#X obj 248 440 r f1;
#X obj 428 440 r f3;
#X obj 515 442 r f4;
#X obj 333 441 r f2;
#X obj 237 360 r res;
#X obj 90 317 r h1;
#X obj 73 364 *;
#X obj 141 361 *;
#X obj 147 318 r h2;
#X obj 200 360 *;
#X obj 209 319 r h3;
#X obj 423 216 t b f;
#X obj 436 266 /;
#X msg 424 242 1;
#X obj 435 288 * 1000;
#X obj 62 70 mtof;
#X floatatom 528 48 5 0 0 0 - - -;
#X obj 1271 399 block~ 1;
#X obj 331 506 *~;
#X obj 329 553 outlet~;
#X floatatom 805 115 5 0 0 0 - - -;
#X obj 771 49 t b f;
#X obj 804 92 *;
#X obj 803 70 / 1300;
#X obj 805 132 +;
#X floatatom 806 152 5 0 0 0 - - -;
#X obj 1010 241 -;
#X obj 1075 226 r damper;
#X obj 1041 176 log;
#X obj 1010 195 *;
#X obj 991 175 t b f;
#X obj 790 213 *~;
#X obj 754 235 lop~, f 7;
#X obj 647 262 +~;
#X obj 647 282 *~ -1;
#X obj 644 322 *~;
#X obj 767 325 *~;
#X obj 994 414 swap 1;
#X obj 996 436 -;
#X obj 1149 204 float;
#X obj 1194 205 + 1;
#X obj 1142 180 bng 15 250 50 0 empty empty empty 17 7 0 10 -262144
-1 -1;
#X floatatom 1010 396 5 0 0 0 - - -;
#X msg 1000 345 0.5;
#X obj 1149 227 % 6;
#X obj 969 283 sel 0 1 2 3 4 5;
#X obj 1079 160 loadbang;
#X msg 959 345 0.4;
#X obj 284 215 line;
#X obj 293 274 +;
#X obj 296 242 t b f;
#X floatatom 274 149 5 0 0 0 - - -;
#X obj 345 110 t b;
#X obj 8 102 sel 0;
#X msg 1037 345 0.6;
#X obj 636 153 delread~ emily3_1 500;
#X obj 629 189 delread~ emily3_2 500;
#X obj 822 498 delwrite~ emily3_2 500;
#X obj 1032 498 delwrite~ emily3_1 500;
#X obj 211 91 r detune;
#X obj 211 122 *;
#X obj 278 91 / 130;
#X obj 1009 220 * 15;
#X msg 273 173 \$1 10;
#X msg 341 173 0 10;
#X obj 344 150 delay 15;
#X obj 38 511 / 127;
#X obj 896 225 clip 800 5200;
#X connect 0 0 1 0;
#X connect 1 0 3 1;
#X connect 1 0 54 1;
#X connect 2 0 11 0;
#X connect 3 0 57 0;
#X connect 3 0 79 0;
#X connect 4 0 37 0;
#X connect 4 0 73 0;
#X connect 4 0 86 0;
#X connect 4 1 5 0;
#X connect 4 1 74 0;
#X connect 5 1 62 0;
#X connect 5 1 12 0;
#X connect 6 0 1 1;
#X connect 7 0 4 0;
#X connect 8 0 45 1;
#X connect 11 0 3 0;
#X connect 12 0 6 0;
#X connect 13 0 17 0;
#X connect 14 0 18 0;
#X connect 15 0 16 0;
#X connect 16 0 39 0;
#X connect 17 0 39 0;
#X connect 18 0 39 0;
#X connect 19 0 20 0;
#X connect 20 0 39 0;
#X connect 21 0 16 1;
#X connect 22 0 17 1;
#X connect 23 0 20 1;
#X connect 24 0 18 1;
#X connect 25 0 19 2;
#X connect 25 0 13 2;
#X connect 25 0 14 2;
#X connect 25 0 15 2;
#X connect 26 0 27 1;
#X connect 27 0 14 1;
#X connect 28 0 13 1;
#X connect 29 0 28 1;
#X connect 30 0 19 1;
#X connect 31 0 30 1;
#X connect 32 0 34 0;
#X connect 32 1 33 1;
#X connect 33 0 35 0;
#X connect 34 0 33 0;
#X connect 35 0 76 0;
#X connect 35 0 77 0;
#X connect 36 0 15 1;
#X connect 36 0 27 0;
#X connect 36 0 28 0;
#X connect 36 0 30 0;
#X connect 36 0 70 0;
#X connect 37 0 36 0;
#X connect 37 0 42 0;
#X connect 37 0 51 0;
#X connect 37 0 82 0;
#X connect 39 0 40 0;
#X connect 41 0 45 0;
#X connect 42 0 43 0;
#X connect 42 1 44 0;
#X connect 43 0 41 0;
#X connect 44 0 43 0;
#X connect 44 0 43 1;
#X connect 45 0 46 0;
#X connect 46 0 2 1;
#X connect 46 0 52 1;
#X connect 47 0 88 0;
#X connect 48 0 47 1;
#X connect 49 0 50 1;
#X connect 50 0 83 0;
#X connect 51 0 50 0;
#X connect 51 1 49 0;
#X connect 51 1 50 0;
#X connect 52 0 53 0;
#X connect 53 0 54 0;
#X connect 54 0 55 0;
#X connect 55 0 56 0;
#X connect 55 0 78 0;
#X connect 56 0 15 0;
#X connect 56 0 14 0;
#X connect 56 0 13 0;
#X connect 56 0 19 0;
#X connect 57 0 19 0;
#X connect 57 0 13 0;
#X connect 57 0 14 0;
#X connect 57 0 15 0;
#X connect 58 0 59 0;
#X connect 58 1 59 1;
#X connect 59 0 57 1;
#X connect 60 0 61 0;
#X connect 60 0 65 0;
#X connect 61 0 60 1;
#X connect 62 0 60 0;
#X connect 63 0 58 0;
#X connect 63 0 56 1;
#X connect 64 0 63 0;
#X connect 65 0 66 0;
#X connect 66 0 68 0;
#X connect 66 1 75 0;
#X connect 66 2 64 0;
#X connect 66 3 68 0;
#X connect 66 4 75 0;
#X connect 66 5 64 0;
#X connect 67 0 60 0;
#X connect 68 0 63 0;
#X connect 69 0 71 0;
#X connect 70 0 32 0;
#X connect 71 0 70 0;
#X connect 71 1 70 1;
#X connect 72 0 84 0;
#X connect 73 0 72 0;
#X connect 73 0 86 0;
#X connect 74 1 87 0;
#X connect 75 0 63 0;
#X connect 76 0 2 0;
#X connect 77 0 52 0;
#X connect 80 0 81 0;
#X connect 81 0 72 0;
#X connect 82 0 81 1;
#X connect 83 0 47 0;
#X connect 84 0 69 0;
#X connect 85 0 69 0;
#X connect 86 0 85 0;
#X connect 87 0 39 1;
#X connect 88 0 11 1;
#X connect 88 0 53 1;
#X restore 295 271 pd stringvoice;
#X obj 261 401 *~ 1.2;
#X obj 259 583 dac~ 1 2;
#N canvas 0 246 1440 590 stringvoice 0;
#X obj 1196 132 noise~;
#X obj 1239 250 *~;
#X obj 825 175 *~;
#X obj 855 270 +~;
#X obj 528 23 unpack;
#X obj 1158 40 sel 0;
#X obj 1317 231 line~;
#X obj 438 7 inlet;
#X obj 844 96 r feedbackamt;
#X obj 1456 176 r dc;
#X obj 1495 181 r su;
#X obj 825 213 lop~, f 7;
#X msg 1344 88 1 0 \, 0 20;
#X obj 394 417 bp~, f 6;
#X obj 312 418 bp~, f 6;
#X obj 225 418 bp~, f 6;
#X obj 226 467 *~;
#X obj 404 467 *~;
#X obj 315 463 *~;
#X obj 490 415 bp~, f 6;
#X obj 490 467 *~;
#X obj 248 440 r f1;
#X obj 428 440 r f3;
#X obj 515 442 r f4;
#X obj 333 441 r f2;
#X obj 237 360 r res;
#X obj 90 317 r h1;
#X obj 73 364 *;
#X obj 141 361 *;
#X obj 147 318 r h2;
#X obj 200 360 *;
#X obj 209 319 r h3;
#X obj 460 195 t b f;
#X obj 473 245 /;
#X msg 461 221 1;
#X obj 472 267 * 1000;
#X obj 62 70 mtof;
#X floatatom 528 48 5 0 0 0 - - -;
#X obj 1271 399 block~ 1;
#X obj 331 506 *~;
#X obj 329 553 outlet~;
#X floatatom 805 115 5 0 0 0 - - -;
#X obj 771 49 t b f;
#X obj 804 92 *;
#X obj 803 70 / 1300;
#X obj 805 132 +;
#X floatatom 806 152 5 0 0 0 - - -;
#X obj 1010 241 -;
#X obj 1075 226 r damper;
#X obj 1041 176 log;
#X obj 1010 195 *;
#X obj 991 175 t b f;
#X obj 790 213 *~;
#X obj 754 235 lop~, f 7;
#X obj 647 262 +~;
#X obj 647 282 *~ -1;
#X obj 644 322 *~;
#X obj 767 325 *~;
#X obj 995 410 swap 1;
#X obj 997 432 -;
#X obj 1149 204 float;
#X obj 1194 205 + 1;
#X obj 1142 180 bng 15 250 50 0 empty empty empty 17 7 0 10 -262144
-1 -1;
#X floatatom 996 393 5 0 0 0 - - -;
#X obj 1149 227 % 6;
#X obj 1079 160 loadbang;
#X obj 284 215 line;
#X obj 293 274 +;
#X obj 296 242 t b f;
#X floatatom 274 149 5 0 0 0 - - -;
#X obj 345 110 t b;
#X obj 11 64 sel 0;
#X obj 822 498 delwrite~ emily4_2 500;
#X obj 1032 498 delwrite~ emily4_1 500;
#X obj 636 153 delread~ emily4_1 500;
#X obj 629 189 delread~ emily4_2 500;
#X obj 211 91 r detune;
#X obj 211 122 *;
#X msg 1000 345 0.5;
#X obj 969 283 sel 0 1 2 3 4 5;
#X msg 959 345 0.4;
#X msg 1037 345 0.6;
#X obj 278 91 / 130;
#X obj 1009 220 * 15;
#X msg 341 173 0 10;
#X msg 273 173 \$1 10;
#X obj 344 150 delay 15;
#X obj 38 511 / 127;
#X obj 896 225 clip 800 5200;
#X connect 0 0 1 0;
#X connect 1 0 3 1;
#X connect 1 0 54 1;
#X connect 2 0 11 0;
#X connect 3 0 57 0;
#X connect 3 0 73 0;
#X connect 4 0 37 0;
#X connect 4 0 70 0;
#X connect 4 0 86 0;
#X connect 4 1 5 0;
#X connect 4 1 71 0;
#X connect 5 1 62 0;
#X connect 5 1 12 0;
#X connect 6 0 1 1;
#X connect 7 0 4 0;
#X connect 8 0 45 1;
#X connect 11 0 3 0;
#X connect 12 0 6 0;
#X connect 13 0 17 0;
#X connect 14 0 18 0;
#X connect 15 0 16 0;
#X connect 16 0 39 0;
#X connect 17 0 39 0;
#X connect 18 0 39 0;
#X connect 19 0 20 0;
#X connect 20 0 39 0;
#X connect 21 0 16 1;
#X connect 22 0 17 1;
#X connect 23 0 20 1;
#X connect 24 0 18 1;
#X connect 25 0 19 2;
#X connect 25 0 13 2;
#X connect 25 0 14 2;
#X connect 25 0 15 2;
#X connect 26 0 27 1;
#X connect 27 0 14 1;
#X connect 28 0 13 1;
#X connect 29 0 28 1;
#X connect 30 0 19 1;
#X connect 31 0 30 1;
#X connect 32 0 34 0;
#X connect 32 1 33 1;
#X connect 33 0 35 0;
#X connect 34 0 33 0;
#X connect 35 0 74 0;
#X connect 35 0 75 0;
#X connect 36 0 15 1;
#X connect 36 0 27 0;
#X connect 36 0 28 0;
#X connect 36 0 30 0;
#X connect 36 0 67 0;
#X connect 37 0 36 0;
#X connect 37 0 42 0;
#X connect 37 0 51 0;
#X connect 37 0 82 0;
#X connect 39 0 40 0;
#X connect 41 0 45 0;
#X connect 42 0 43 0;
#X connect 42 1 44 0;
#X connect 43 0 41 0;
#X connect 44 0 43 0;
#X connect 44 0 43 1;
#X connect 45 0 46 0;
#X connect 46 0 2 1;
#X connect 46 0 52 1;
#X connect 47 0 88 0;
#X connect 48 0 47 1;
#X connect 49 0 50 1;
#X connect 50 0 83 0;
#X connect 51 0 50 0;
#X connect 51 1 49 0;
#X connect 51 1 50 0;
#X connect 52 0 53 0;
#X connect 53 0 54 0;
#X connect 54 0 55 0;
#X connect 55 0 56 0;
#X connect 55 0 72 0;
#X connect 56 0 15 0;
#X connect 56 0 14 0;
#X connect 56 0 13 0;
#X connect 56 0 19 0;
#X connect 57 0 19 0;
#X connect 57 0 13 0;
#X connect 57 0 14 0;
#X connect 57 0 15 0;
#X connect 58 0 59 0;
#X connect 58 1 59 1;
#X connect 59 0 57 1;
#X connect 60 0 61 0;
#X connect 60 0 64 0;
#X connect 61 0 60 1;
#X connect 62 0 60 0;
#X connect 63 0 56 1;
#X connect 63 0 58 0;
#X connect 64 0 79 0;
#X connect 65 0 60 0;
#X connect 66 0 68 0;
#X connect 67 0 32 0;
#X connect 68 0 67 0;
#X connect 68 1 67 1;
#X connect 69 0 85 0;
#X connect 70 0 69 0;
#X connect 70 0 86 0;
#X connect 71 1 87 0;
#X connect 74 0 2 0;
#X connect 75 0 52 0;
#X connect 76 0 77 0;
#X connect 77 0 69 0;
#X connect 78 0 63 0;
#X connect 79 0 81 0;
#X connect 79 1 80 0;
#X connect 79 2 78 0;
#X connect 79 3 80 0;
#X connect 79 4 81 0;
#X connect 79 5 78 0;
#X connect 80 0 63 0;
#X connect 81 0 63 0;
#X connect 82 0 77 1;
#X connect 83 0 47 0;
#X connect 84 0 66 0;
#X connect 85 0 66 0;
#X connect 86 0 84 0;
#X connect 87 0 39 1;
#X connect 88 0 11 1;
#X connect 88 0 53 1;
#X restore 400 271 pd stringvoice;
#X obj 215 214 route 1 2 3 4;
#X obj 215 159 poly 4 1;
#X obj 216 121 pack 0 0;
#N canvas 212 314 927 448 arpeggiator 0;
#X obj 205 115 loadbang;
#X obj 205 136 metro 250;
#X obj 205 157 i;
#X obj 234 159 + 1;
#X obj 342 72 snapshot~;
#X obj 414 50 metro 10;
#X obj 342 93 * 1000;
#X obj 342 114 + 30;
#X obj 204 210 sel 0 1 2 3 4;
#X obj 205 178 % 6;
#X obj 207 303 +;
#X msg 251 250 3;
#X msg 302 250 7;
#X msg 356 250 12;
#X msg 406 250 -5;
#X msg 206 250 0;
#X obj 207 329 pack 0 0;
#X msg 250 291 64;
#X obj 343 12 inlet~ tempo;
#X obj 69 20 inlet note;
#X obj 205 362 outlet;
#X text 141 21 MIDI note in here;
#X text 427 11 Tempo control in here;
#X text 329 208 simple arpeggiator;
#X text 275 360 output note velocity pairs;
#X text 561 123 to use this arpeggiator it is necessary to connect
the left;
#X text 561 143 outlet of [notein] to the left input of the arperggiator
;
#X text 561 163 the right inlet accepts a signal rate sensor reading
;
#X text 561 183 connect the output of arpeggiator to [poly];
#X connect 0 0 1 0;
#X connect 0 0 5 0;
#X connect 1 0 2 0;
#X connect 1 0 17 0;
#X connect 2 0 3 0;
#X connect 2 0 9 0;
#X connect 3 0 2 1;
#X connect 4 0 6 0;
#X connect 5 0 4 0;
#X connect 6 0 7 0;
#X connect 7 0 1 1;
#X connect 8 0 15 0;
#X connect 8 1 11 0;
#X connect 8 2 12 0;
#X connect 8 3 13 0;
#X connect 8 5 14 0;
#X connect 9 0 8 0;
#X connect 10 0 16 0;
#X connect 11 0 10 0;
#X connect 12 0 10 0;
#X connect 13 0 10 0;
#X connect 14 0 10 0;
#X connect 15 0 10 0;
#X connect 16 0 20 0;
#X connect 17 0 16 1;
#X connect 18 0 4 0;
#X connect 19 0 10 1;
#X restore 435 176 pd arpeggiator;
#X obj 214 92 notein 0;
#N canvas 0 22 1341 741 filtering 0;
#X obj 327 59 inlet~;
#X obj 312 437 outlet~;
#X obj 667 210 s feedbackamt;
#X obj 909 389 s f1;
#X obj 968 389 s f2;
#X obj 1027 391 s f3;
#X obj 497 280 s res;
#X obj 1088 391 s f4;
#X msg 498 248 9.76;
#X obj 571 112 loadbang;
#X obj 933 625 s h1;
#X obj 1023 623 s h2;
#X obj 1089 628 s h3;
#X msg 981 508 4;
#X msg 1050 511 4;
#X msg 1123 510 4;
#X obj 925 462 loadbang;
#X text 973 442 Harmonics Comb-Filter;
#X text 493 303 Don't touch!!!;
#X obj 663 328 s damper;
#X msg 609 333 2000;
#X msg 609 266 500;
#X msg 608 288 1000;
#X msg 609 309 1500;
#X msg 608 243 250;
#X msg 608 221 125;
#X text 666 310 Damper:;
#X msg 607 197 0;
#X msg 666 188 0.99;
#X text 663 169 String-Decay (can't go any higher!!!!);
#X obj 940 88 vsl 15 128 0 30 0 0 empty empty empty 0 -9 0 10 -262144
-1 -1 2540 1;
#X obj 941 258 s detune;
#X floatatom 940 222 5 0 0 0 - - -;
#X msg 1050 593 1.25;
#X msg 1050 537 2;
#X msg 1125 563 1.5;
#X msg 1124 537 2;
#X msg 1125 592 1.25;
#X msg 982 591 1.25;
#X msg 981 536 2;
#X obj 40 305 dattorroplate~;
#X text 50 189 Predelay;
#X text 115 191 Bandwidth;
#X text 188 191 Damping;
#X text 246 192 Gain;
#X msg 121 224 0.591;
#X msg 182 224 0.345;
#X msg 52 223 49.448;
#X msg 242 225 0.363;
#X obj 40 262 hip~ 500;
#X obj 162 166 loadbang;
#X msg 981 617 0.5;
#X msg 1051 564 1.5;
#X msg 982 564 1.5;
#X obj 42 284 lop~ 1500;
#X obj 929 27 loadbang;
#X obj 1024 95 r aux;
#X obj 1110 149 *~;
#X obj 983 235 +;
#X obj 1109 98 +~ 1;
#X obj 1192 129 snapshot~;
#X msg 1186 49 1;
#X floatatom 1190 165 5 0 0 0 - - -;
#X obj 1191 78 metro 50;
#X obj 1019 153 s led;
#X msg 979 154 0;
#X obj 982 122 sel 0;
#X msg 980 177 5;
#X obj 120 334 *~ 1.5;
#X obj 40 333 *~ 1.5;
#X obj 329 234 vcf~, f 6;
#X msg 379 201 6;
#X obj 329 136 *~ 1.2;
#X msg 932 53 6;
#X obj 308 327 lop~;
#X obj 421 211 vsl 15 128 0 4000 0 0 empty empty empty 0 -9 0 10 -262144
-1 -1 5397 1;
#X floatatom 422 350 5 0 0 0 - - -;
#X msg 420 187 1700;
#X obj 329 272 *~ 1.6;
#X msg 343 202 160;
#X obj 1110 120 *~ 20;
#X obj 1109 74 osc~ 6;
#X obj 1024 330 loadbang;
#X msg 1021 354 0.5;
#X obj 452 421 snapshot~;
#X obj 524 399 metro 10;
#X obj 452 442 * 2000;
#X obj 452 400 adc~ 3;
#X connect 0 0 72 0;
#X connect 8 0 6 0;
#X connect 9 0 8 0;
#X connect 9 0 28 0;
#X connect 9 0 71 0;
#X connect 9 0 79 0;
#X connect 9 0 27 0;
#X connect 9 0 77 0;
#X connect 9 0 85 0;
#X connect 13 0 10 0;
#X connect 14 0 11 0;
#X connect 15 0 12 0;
#X connect 16 0 51 0;
#X connect 16 0 35 0;
#X connect 16 0 33 0;
#X connect 20 0 19 0;
#X connect 21 0 19 0;
#X connect 22 0 19 0;
#X connect 23 0 19 0;
#X connect 24 0 19 0;
#X connect 25 0 19 0;
#X connect 27 0 19 0;
#X connect 28 0 2 0;
#X connect 30 0 32 0;
#X connect 32 0 58 1;
#X connect 33 0 11 0;
#X connect 34 0 11 0;
#X connect 35 0 12 0;
#X connect 36 0 12 0;
#X connect 37 0 12 0;
#X connect 38 0 10 0;
#X connect 39 0 10 0;
#X connect 40 0 69 0;
#X connect 40 1 68 0;
#X connect 45 0 40 2;
#X connect 46 0 40 3;
#X connect 47 0 40 1;
#X connect 48 0 40 4;
#X connect 49 0 54 0;
#X connect 50 0 47 0;
#X connect 50 0 45 0;
#X connect 50 0 46 0;
#X connect 50 0 48 0;
#X connect 51 0 10 0;
#X connect 52 0 11 0;
#X connect 53 0 10 0;
#X connect 54 0 40 0;
#X connect 55 0 73 0;
#X connect 55 0 61 0;
#X connect 56 0 57 1;
#X connect 56 0 66 0;
#X connect 57 0 60 0;
#X connect 58 0 31 0;
#X connect 59 0 80 0;
#X connect 60 0 62 0;
#X connect 61 0 63 0;
#X connect 62 0 58 0;
#X connect 63 0 60 0;
#X connect 65 0 64 0;
#X connect 66 0 65 0;
#X connect 66 1 67 0;
#X connect 67 0 64 0;
#X connect 68 0 1 0;
#X connect 69 0 1 0;
#X connect 70 0 78 0;
#X connect 71 0 70 2;
#X connect 72 0 70 0;
#X connect 72 0 49 0;
#X connect 72 0 74 0;
#X connect 73 0 30 0;
#X connect 74 0 1 0;
#X connect 75 0 76 0;
#X connect 76 0 74 1;
#X connect 77 0 75 0;
#X connect 78 0 74 0;
#X connect 79 0 70 1;
#X connect 80 0 57 0;
#X connect 81 0 59 0;
#X connect 82 0 83 0;
#X connect 83 0 3 0;
#X connect 83 0 4 0;
#X connect 83 0 5 0;
#X connect 83 0 7 0;
#X connect 84 0 86 0;
#X connect 85 0 84 0;
#X connect 86 0 19 0;
#X connect 87 0 84 0;
#X restore 258 460 pd filtering;
#X obj 505 131 adc~ 4;
#X connect 0 0 7 0;
#X connect 1 0 4 0;
#X connect 2 0 4 0;
#X connect 3 0 4 0;
#X connect 4 0 12 0;
#X connect 6 0 4 0;
#X connect 7 0 1 0;
#X connect 7 1 2 0;
#X connect 7 2 3 0;
#X connect 7 3 6 0;
#X connect 8 0 0 0;
#X connect 8 1 0 1;
#X connect 8 2 0 2;
#X connect 9 0 8 0;
#X connect 11 0 9 0;
#X connect 11 1 9 1;
#X connect 12 0 5 0;
#X connect 12 0 5 1;
#X connect 13 0 10 1;
