#N canvas 583 108 605 489 10;
#X obj 77 72 adc~ 3 4 5;
#X obj 77 173 dac~ 27 28 29;
#X text 212 71 read x y and z;
#X text 212 171 pass to the scope;
#X connect 0 0 1 0;
#X connect 0 1 1 1;
#X connect 0 2 1 2;
