#N canvas 91 22 1233 686 10;
#X obj 77 72 adc~ 3 4 5;
#X text 212 71 read x y and z;
#X text 212 171 pass to the scope;
#X obj 82 538 dac~ 27 28 29 30;
#X obj 77 93 s~ x;
#X obj 107 123 s~ y;
#X obj 132 96 s~ z;
#X obj 438 174 r~ x;
#X obj 499 175 r~ y;
#X obj 560 176 r~ z;
#X obj 439 231 +~;
#X obj 439 261 +~;
#X obj 439 291 pow~ 0.5;
#X obj 438 380 *~;
#X obj 451 342 osc~ 200;
#X obj 438 451 dac~ 1 2;
#X obj 58 484 r~ x;
#X obj 119 485 r~ y;
#X obj 180 486 r~ z;
#X connect 0 0 4 0;
#X connect 0 1 5 0;
#X connect 0 2 6 0;
#X connect 7 0 10 0;
#X connect 8 0 10 1;
#X connect 9 0 11 1;
#X connect 10 0 11 0;
#X connect 11 0 12 0;
#X connect 11 0 3 3;
#X connect 12 0 13 0;
#X connect 13 0 15 0;
#X connect 13 0 15 1;
#X connect 14 0 13 1;
#X connect 16 0 3 0;
#X connect 17 0 3 1;
#X connect 18 0 3 2;
